<?xml version="1.0" encoding="utf-8"?>
<!-- Generator: Adobe Illustrator 22.0.0, SVG Export Plug-In . SVG Version: 6.00 Build 0)  -->
<svg version="1.1" xmlns="http://www.w3.org/2000/svg" xmlns:xlink="http://www.w3.org/1999/xlink" x="0px" y="0px"
	 viewBox="0 0 256 256" style="enable-background:new 0 0 256 256;" xml:space="preserve">
<style type="text/css">
	.st0{display:none;}
	.st1{display:inline;}
	.st2{fill:none;stroke:#6B1D1D;stroke-width:0.5;stroke-miterlimit:10;}
	.st3{fill:#3A312A;}
	.st4{fill:#87796F;}
	.st5{fill:#D5DE58;}
	.st6{fill:#695B51;}
	.st7{fill:#FCE8CB;}
	.st8{fill:#F16C7A;}
	.st9{fill:#8AC6DD;}
	.st10{fill:#DECAAD;}
	.st11{fill:#D6DF58;}
	.st12{fill-rule:evenodd;clip-rule:evenodd;fill:#FCE8CB;}
	.st13{fill:#F5978A;}
	.st14{fill:#D7E057;}
	.st15{fill-rule:evenodd;clip-rule:evenodd;fill:#87796F;}
	.st16{fill:#6CA8BF;}
	.st17{fill:#B9C239;}
	.st18{fill:#D34E5C;}
	.st19{fill:#FAE6CA;}
	.st20{fill:#F8E4C8;}
	.st21{fill:#8AC5DC;}
	.st22{fill:#EF6D7A;}
	.st23{fill:#EB6E7A;}
	.st24{fill:#89C4DB;}
	.st25{fill-rule:evenodd;clip-rule:evenodd;fill:#F16C7A;}
	.st26{fill:#F7E3C7;}
	.st27{fill:#F6E2C6;}
	.st28{fill:#ED6E7A;}
	.st29{fill:#8AC3DA;}
	.st30{fill:#D5DC57;}
	.st31{fill-rule:evenodd;clip-rule:evenodd;fill:#D7E057;}
	.st32{fill-rule:evenodd;clip-rule:evenodd;fill:#F8E4C8;}
	.st33{fill:#D4DB56;}
	.st34{fill:#F59689;}
	.st35{fill:#DDC9AC;}
	.st36{fill:#D24E5C;}
	.st37{fill:#6A5C52;}
	.st38{fill:#6CA6BE;}
	.st39{fill:#B8C136;}
	.st40{fill-rule:evenodd;clip-rule:evenodd;fill:#FAE6CA;}
</style>
<g id="Layer_2" class="st0">
	<g class="st1">
		<g>
			<line class="st2" x1="0" y1="4.829" x2="256" y2="4.829"/>
			<line class="st2" x1="0" y1="16.56" x2="256" y2="16.56"/>
			<line class="st2" x1="0" y1="28.29" x2="256" y2="28.29"/>
			<line class="st2" x1="0" y1="40.021" x2="256" y2="40.021"/>
			<line class="st2" x1="0" y1="51.751" x2="256" y2="51.751"/>
			<line class="st2" x1="0" y1="63.482" x2="256" y2="63.482"/>
			<line class="st2" x1="0" y1="75.213" x2="256" y2="75.213"/>
			<line class="st2" x1="0" y1="86.943" x2="256" y2="86.943"/>
			<line class="st2" x1="0" y1="98.674" x2="256" y2="98.674"/>
			<line class="st2" x1="0" y1="110.404" x2="256" y2="110.404"/>
			<line class="st2" x1="0" y1="122.135" x2="256" y2="122.135"/>
			<line class="st2" x1="0" y1="133.865" x2="256" y2="133.865"/>
			<line class="st2" x1="0" y1="145.596" x2="256" y2="145.596"/>
			<line class="st2" x1="0" y1="157.326" x2="256" y2="157.326"/>
			<line class="st2" x1="0" y1="169.057" x2="256" y2="169.057"/>
			<line class="st2" x1="0" y1="180.788" x2="256" y2="180.788"/>
			<line class="st2" x1="0" y1="192.518" x2="256" y2="192.518"/>
			<line class="st2" x1="0" y1="204.249" x2="256" y2="204.249"/>
			<line class="st2" x1="0" y1="215.979" x2="256" y2="215.979"/>
			<line class="st2" x1="0" y1="227.71" x2="256" y2="227.71"/>
			<line class="st2" x1="0" y1="239.44" x2="256" y2="239.44"/>
			<line class="st2" x1="0" y1="251.171" x2="256" y2="251.171"/>
		</g>
		<g>
			<line class="st2" x1="251.171" y1="0" x2="251.171" y2="256"/>
			<line class="st2" x1="239.44" y1="0" x2="239.44" y2="256"/>
			<line class="st2" x1="227.71" y1="0" x2="227.71" y2="256"/>
			<line class="st2" x1="215.979" y1="0" x2="215.979" y2="256"/>
			<line class="st2" x1="204.249" y1="0" x2="204.249" y2="256"/>
			<line class="st2" x1="192.518" y1="0" x2="192.518" y2="256"/>
			<line class="st2" x1="180.788" y1="0" x2="180.788" y2="256"/>
			<line class="st2" x1="169.057" y1="0" x2="169.057" y2="256"/>
			<line class="st2" x1="157.326" y1="0" x2="157.326" y2="256"/>
			<line class="st2" x1="145.596" y1="0" x2="145.596" y2="256"/>
			<line class="st2" x1="133.865" y1="0" x2="133.865" y2="256"/>
			<line class="st2" x1="122.135" y1="0" x2="122.135" y2="256"/>
			<line class="st2" x1="110.404" y1="0" x2="110.404" y2="256"/>
			<line class="st2" x1="98.674" y1="0" x2="98.674" y2="256"/>
			<line class="st2" x1="86.943" y1="0" x2="86.943" y2="256"/>
			<line class="st2" x1="75.213" y1="0" x2="75.213" y2="256"/>
			<line class="st2" x1="63.482" y1="0" x2="63.482" y2="256"/>
			<line class="st2" x1="51.751" y1="0" x2="51.751" y2="256"/>
			<line class="st2" x1="40.021" y1="0" x2="40.021" y2="256"/>
			<line class="st2" x1="28.29" y1="0" x2="28.29" y2="256"/>
			<line class="st2" x1="16.56" y1="0" x2="16.56" y2="256"/>
			<line class="st2" x1="4.829" y1="0" x2="4.829" y2="256"/>
		</g>
	</g>
</g>
<g id="Layer_1">
	<g>
		<path class="st4" d="M222.395,180.635H33.605c-9.447,0-17.105-7.658-17.105-17.105V33.241c0-9.447,7.658-17.106,17.105-17.106
			h188.789c9.447,0,17.105,7.659,17.105,17.106V163.53C239.5,172.977,231.842,180.635,222.395,180.635z"/>
		<path class="st3" d="M222.395,182.135H33.605C23.347,182.135,15,173.789,15,163.53V33.241c0-10.259,8.347-18.605,18.605-18.605
			h188.789c10.259,0,18.605,8.346,18.605,18.605V163.53C241,173.789,232.653,182.135,222.395,182.135z M33.605,17.635
			c-8.604,0-15.605,7-15.605,15.605V163.53c0,8.605,7.001,15.605,15.605,15.605h188.789c8.604,0,15.605-7.001,15.605-15.605V33.241
			c0-8.605-7.001-15.605-15.605-15.605H33.605z"/>
		<path class="st14" d="M86.201,28.635h-45.17c-6.583,0-11.92,5.337-11.92,11.92v115.66c0,6.583,5.337,11.92,11.92,11.92h173.938
			c6.583,0,11.92-5.337,11.92-11.92V40.555c0-6.583-5.337-11.92-11.92-11.92H99.799H86.201z"/>
		<path class="st3" d="M214.969,169.635H41.031c-7.399,0-13.42-6.02-13.42-13.42V40.555c0-7.4,6.021-13.42,13.42-13.42h45.17
			c0.828,0,1.5,0.671,1.5,1.5c0,0.829-0.672,1.5-1.5,1.5h-45.17c-5.745,0-10.42,4.674-10.42,10.42v115.66
			c0,5.746,4.675,10.42,10.42,10.42h173.938c5.745,0,10.42-4.674,10.42-10.42V40.555c0-5.746-4.675-10.42-10.42-10.42H99.799
			c-0.828,0-1.5-0.671-1.5-1.5c0-0.829,0.672-1.5,1.5-1.5h115.17c7.399,0,13.42,6.02,13.42,13.42v115.66
			C228.389,163.615,222.368,169.635,214.969,169.635z"/>
		<rect x="113.688" y="180.635" class="st4" width="28.625" height="35.593"/>
		<path class="st3" d="M142.312,217.729h-28.625c-0.828,0-1.5-0.671-1.5-1.5v-35.593c0-0.829,0.672-1.5,1.5-1.5h28.625
			c0.828,0,1.5,0.671,1.5,1.5v35.593C143.812,217.057,143.141,217.729,142.312,217.729z M115.188,214.729h25.625v-32.593h-25.625
			V214.729z"/>
		<path class="st4" d="M135.452,239.635h36.252c0-12.927-10.479-23.407-23.407-23.407h-40.593c-12.927,0-23.407,10.48-23.407,23.407
			h37.584H135.452z"/>
		<path class="st3" d="M171.703,241.135h-36.252c-0.828,0-1.5-0.671-1.5-1.5c0-0.829,0.672-1.5,1.5-1.5h34.701
			c-0.773-11.382-10.28-20.407-21.855-20.407h-40.594c-11.575,0-21.082,9.024-21.855,20.407h36.033c0.828,0,1.5,0.671,1.5,1.5
			c0,0.829-0.672,1.5-1.5,1.5H84.297c-0.828,0-1.5-0.671-1.5-1.5c0-13.733,11.173-24.907,24.906-24.907h40.594
			c13.733,0,24.906,11.173,24.906,24.907C173.203,240.464,172.531,241.135,171.703,241.135z"/>
		<path class="st14" d="M47.671,203.469c0,0,3.408,12.659,13.222,13.247c0,0-13.1,4.525-13.321,14.202
			c0,0-2.579-13.572-12.925-14.059C34.647,216.859,46.697,215.033,47.671,203.469z"/>
		<path class="st3" d="M47.571,232.417c-0.713,0-1.335-0.506-1.473-1.217c-0.023-0.124-2.494-12.418-11.522-12.842
			c-0.771-0.037-1.388-0.651-1.428-1.421c-0.04-0.77,0.511-1.445,1.274-1.56c0.441-0.069,10.894-1.817,11.754-12.033
			c0.062-0.725,0.635-1.301,1.359-1.367c0.735-0.06,1.393,0.399,1.584,1.102c0.031,0.116,3.259,11.626,11.863,12.141
			c0.714,0.043,1.297,0.584,1.396,1.292c0.098,0.708-0.318,1.388-0.994,1.623c-0.121,0.042-12.118,4.311-12.312,12.819
			c-0.018,0.767-0.61,1.396-1.375,1.46C47.655,232.415,47.613,232.417,47.571,232.417z M39.829,216.688
			c3.879,1.969,6.23,5.746,7.588,8.876c2.026-4.021,5.941-6.787,8.948-8.427c-4.134-1.842-6.783-5.651-8.334-8.722
			C46.238,212.775,42.76,215.283,39.829,216.688z"/>
		<path class="st14" d="M25.972,220.45c0,0,2.411,8.954,9.352,9.369c0,0-9.266,3.201-9.422,10.046c0,0-1.824-9.6-9.142-9.944
			C16.76,229.921,25.284,228.629,25.972,220.45z"/>
		<path class="st3" d="M25.901,241.365c-0.714,0-1.337-0.507-1.473-1.22c-0.016-0.082-1.704-8.442-7.739-8.726
			c-0.771-0.037-1.388-0.651-1.428-1.421c-0.04-0.771,0.511-1.445,1.274-1.561c0.296-0.047,7.364-1.243,7.942-8.114
			c0.062-0.726,0.636-1.303,1.361-1.368c0.724-0.062,1.392,0.399,1.582,1.102l0,0c0.021,0.079,2.227,7.92,7.993,8.265
			c0.714,0.043,1.299,0.585,1.396,1.293c0.097,0.709-0.32,1.388-0.996,1.622c-0.081,0.028-8.282,2.952-8.412,8.662
			c-0.017,0.767-0.611,1.398-1.376,1.461C25.984,241.363,25.942,241.365,25.901,241.365z M21.382,229.837
			c2.108,1.333,3.524,3.394,4.447,5.28c1.376-2.233,3.516-3.872,5.365-4.973c-2.287-1.27-3.885-3.35-4.941-5.224
			C25.079,227.208,23.238,228.796,21.382,229.837z"/>
		<path class="st14" d="M25.972,193.792c0,0,2.411,8.954,9.352,9.37c0,0-9.266,3.201-9.422,10.046c0,0-1.824-9.6-9.142-9.944
			C16.76,203.263,25.284,201.972,25.972,193.792z"/>
		<path class="st3" d="M25.901,214.708c-0.714,0-1.337-0.507-1.473-1.22c-0.016-0.081-1.704-8.442-7.739-8.726
			c-0.771-0.037-1.388-0.651-1.428-1.421c-0.04-0.771,0.511-1.445,1.274-1.561c0.296-0.047,7.364-1.243,7.942-8.113
			c0.062-0.726,0.636-1.303,1.361-1.368c0.724-0.061,1.392,0.4,1.582,1.102l0,0c0.021,0.079,2.227,7.919,7.993,8.264
			c0.714,0.043,1.299,0.584,1.396,1.293c0.097,0.709-0.32,1.388-0.996,1.622c-0.081,0.028-8.282,2.953-8.412,8.662
			c-0.017,0.767-0.611,1.398-1.376,1.461C25.984,214.706,25.942,214.708,25.901,214.708z M21.382,203.18
			c2.108,1.333,3.524,3.395,4.447,5.28c1.376-2.232,3.516-3.872,5.365-4.973c-2.287-1.269-3.885-3.35-4.941-5.223
			C25.079,200.55,23.238,202.139,21.382,203.18z"/>
		<path class="st17" d="M214.97,30.135h-15c5.74,0,10.42,4.67,10.42,10.42v115.66c0,5.75-4.68,10.42-10.42,10.42h15
			c5.74,0,10.42-4.67,10.42-10.42V40.555C225.39,34.805,220.71,30.135,214.97,30.135z"/>
		<circle class="st19" cx="128" cy="98.5" r="52.5"/>
		<path class="st3" d="M128,152.5c-29.775,0-54-24.224-54-54s24.225-54,54-54s54,24.224,54,54S157.775,152.5,128,152.5z M128,47.5
			c-28.121,0-51,22.878-51,51s22.879,51,51,51s51-22.878,51-51S156.121,47.5,128,47.5z"/>
		<path class="st8" d="M166.296,94.091L112.46,63.009c-3.394-1.959-7.636,0.49-7.636,4.409v62.165c0,3.919,4.242,6.368,7.636,4.409
			l53.837-31.083C169.69,100.949,169.69,96.051,166.296,94.091z"/>
		<path class="st3" d="M109.914,136.184c-1.132,0-2.264-0.298-3.296-0.894c-2.063-1.191-3.295-3.325-3.295-5.707V67.418
			c0-2.383,1.232-4.516,3.295-5.708c2.064-1.191,4.527-1.192,6.592,0l53.837,31.083l0,0c2.063,1.191,3.295,3.325,3.295,5.707
			s-1.231,4.516-3.295,5.707L113.21,135.29C112.178,135.886,111.046,136.184,109.914,136.184z M109.914,63.821
			c-0.617,0-1.233,0.163-1.796,0.487c-1.124,0.649-1.795,1.812-1.795,3.109v62.165c0,1.298,0.671,2.46,1.795,3.109
			c1.125,0.649,2.467,0.649,3.592,0l53.837-31.082c1.124-0.649,1.795-1.812,1.795-3.11s-0.671-2.46-1.795-3.11L111.71,64.308
			C111.147,63.983,110.531,63.821,109.914,63.821z"/>
		<path class="st4" d="M61.415,56.458H51.214c-1.728,0-3.129-1.401-3.129-3.129V43.129c0-1.728,1.401-3.129,3.129-3.129h10.201
			c1.728,0,3.129,1.401,3.129,3.129V53.33C64.544,55.058,63.143,56.458,61.415,56.458z"/>
		<path class="st3" d="M61.415,57.958H51.214c-2.552,0-4.628-2.077-4.628-4.629V43.128c0-2.552,2.076-4.628,4.628-4.628h10.201
			c2.553,0,4.629,2.076,4.629,4.628V53.33C66.044,55.882,63.968,57.958,61.415,57.958z M51.214,41.5
			c-0.898,0-1.628,0.73-1.628,1.628V53.33c0,0.898,0.73,1.629,1.628,1.629h10.201c0.898,0,1.629-0.731,1.629-1.629V43.128
			c0-0.898-0.73-1.628-1.629-1.628H51.214z"/>
		<path class="st4" d="M61.415,81.969H51.214c-1.728,0-3.129-1.401-3.129-3.129V68.639c0-1.728,1.401-3.129,3.129-3.129h10.201
			c1.728,0,3.129,1.401,3.129,3.129V78.84C64.544,80.568,63.143,81.969,61.415,81.969z"/>
		<path class="st3" d="M61.415,83.469H51.214c-2.552,0-4.628-2.076-4.628-4.629V68.639c0-2.552,2.076-4.629,4.628-4.629h10.201
			c2.553,0,4.629,2.077,4.629,4.629V78.84C66.044,81.393,63.968,83.469,61.415,83.469z M51.214,67.01
			c-0.898,0-1.628,0.731-1.628,1.629V78.84c0,0.898,0.73,1.629,1.628,1.629h10.201c0.898,0,1.629-0.731,1.629-1.629V68.639
			c0-0.898-0.73-1.629-1.629-1.629H51.214z"/>
		<path class="st4" d="M61.415,107.479H51.214c-1.728,0-3.129-1.401-3.129-3.129V94.149c0-1.728,1.401-3.129,3.129-3.129h10.201
			c1.728,0,3.129,1.401,3.129,3.129v10.201C64.544,106.078,63.143,107.479,61.415,107.479z"/>
		<path class="st3" d="M61.415,108.979H51.214c-2.552,0-4.628-2.076-4.628-4.628V94.149c0-2.552,2.076-4.628,4.628-4.628h10.201
			c2.553,0,4.629,2.076,4.629,4.628v10.201C66.044,106.903,63.968,108.979,61.415,108.979z M51.214,92.521
			c-0.898,0-1.628,0.73-1.628,1.628v10.201c0,0.898,0.73,1.628,1.628,1.628h10.201c0.898,0,1.629-0.73,1.629-1.628V94.149
			c0-0.898-0.73-1.628-1.629-1.628H51.214z"/>
		<path class="st4" d="M61.415,132.99H51.214c-1.728,0-3.129-1.401-3.129-3.129V119.66c0-1.728,1.401-3.129,3.129-3.129h10.201
			c1.728,0,3.129,1.401,3.129,3.129v10.201C64.544,131.589,63.143,132.99,61.415,132.99z"/>
		<path class="st3" d="M61.415,134.49H51.214c-2.552,0-4.628-2.077-4.628-4.629V119.66c0-2.552,2.076-4.628,4.628-4.628h10.201
			c2.553,0,4.629,2.076,4.629,4.628v10.201C66.044,132.413,63.968,134.49,61.415,134.49z M51.214,118.031
			c-0.898,0-1.628,0.73-1.628,1.628v10.201c0,0.898,0.73,1.629,1.628,1.629h10.201c0.898,0,1.629-0.731,1.629-1.629V119.66
			c0-0.898-0.73-1.628-1.629-1.628H51.214z"/>
		<path class="st4" d="M61.415,158.5H51.214c-1.728,0-3.129-1.401-3.129-3.129V145.17c0-1.728,1.401-3.129,3.129-3.129h10.201
			c1.728,0,3.129,1.401,3.129,3.129v10.201C64.544,157.099,63.143,158.5,61.415,158.5z"/>
		<path class="st3" d="M61.415,160H51.214c-2.552,0-4.628-2.076-4.628-4.628V145.17c0-2.552,2.076-4.629,4.628-4.629h10.201
			c2.553,0,4.629,2.077,4.629,4.629v10.201C66.044,157.924,63.968,160,61.415,160z M51.214,143.542
			c-0.898,0-1.628,0.731-1.628,1.629v10.201c0,0.898,0.73,1.628,1.628,1.628h10.201c0.898,0,1.629-0.73,1.629-1.628V145.17
			c0-0.898-0.73-1.629-1.629-1.629H51.214z"/>
		<path class="st4" d="M204.786,56.458h-10.201c-1.728,0-3.129-1.401-3.129-3.129V43.129c0-1.728,1.401-3.129,3.129-3.129h10.201
			c1.728,0,3.129,1.401,3.129,3.129V53.33C207.914,55.058,206.514,56.458,204.786,56.458z"/>
		<path class="st3" d="M204.786,57.958h-10.201c-2.553,0-4.629-2.077-4.629-4.629V43.128c0-2.552,2.076-4.628,4.629-4.628h10.201
			c2.552,0,4.628,2.076,4.628,4.628V53.33C209.414,55.882,207.338,57.958,204.786,57.958z M194.585,41.5
			c-0.899,0-1.629,0.73-1.629,1.628V53.33c0,0.898,0.73,1.629,1.629,1.629h10.201c0.897,0,1.628-0.731,1.628-1.629V43.128
			c0-0.898-0.73-1.628-1.628-1.628H194.585z"/>
		<path class="st4" d="M204.786,81.969h-10.201c-1.728,0-3.129-1.401-3.129-3.129V68.639c0-1.728,1.401-3.129,3.129-3.129h10.201
			c1.728,0,3.129,1.401,3.129,3.129V78.84C207.914,80.568,206.514,81.969,204.786,81.969z"/>
		<path class="st3" d="M204.786,83.469h-10.201c-2.553,0-4.629-2.076-4.629-4.629V68.639c0-2.552,2.076-4.629,4.629-4.629h10.201
			c2.552,0,4.628,2.077,4.628,4.629V78.84C209.414,81.393,207.338,83.469,204.786,83.469z M194.585,67.01
			c-0.899,0-1.629,0.731-1.629,1.629V78.84c0,0.898,0.73,1.629,1.629,1.629h10.201c0.897,0,1.628-0.731,1.628-1.629V68.639
			c0-0.898-0.73-1.629-1.628-1.629H194.585z"/>
		<path class="st4" d="M204.786,107.479h-10.201c-1.728,0-3.129-1.401-3.129-3.129V94.149c0-1.728,1.401-3.129,3.129-3.129h10.201
			c1.728,0,3.129,1.401,3.129,3.129v10.201C207.914,106.078,206.514,107.479,204.786,107.479z"/>
		<path class="st3" d="M204.786,108.979h-10.201c-2.553,0-4.629-2.076-4.629-4.628V94.149c0-2.552,2.076-4.628,4.629-4.628h10.201
			c2.552,0,4.628,2.076,4.628,4.628v10.201C209.414,106.903,207.338,108.979,204.786,108.979z M194.585,92.521
			c-0.899,0-1.629,0.73-1.629,1.628v10.201c0,0.898,0.73,1.628,1.629,1.628h10.201c0.897,0,1.628-0.73,1.628-1.628V94.149
			c0-0.898-0.73-1.628-1.628-1.628H194.585z"/>
		<path class="st4" d="M204.786,132.99h-10.201c-1.728,0-3.129-1.401-3.129-3.129V119.66c0-1.728,1.401-3.129,3.129-3.129h10.201
			c1.728,0,3.129,1.401,3.129,3.129v10.201C207.914,131.589,206.514,132.99,204.786,132.99z"/>
		<path class="st3" d="M204.786,134.49h-10.201c-2.553,0-4.629-2.077-4.629-4.629V119.66c0-2.552,2.076-4.628,4.629-4.628h10.201
			c2.552,0,4.628,2.076,4.628,4.628v10.201C209.414,132.413,207.338,134.49,204.786,134.49z M194.585,118.031
			c-0.899,0-1.629,0.73-1.629,1.628v10.201c0,0.898,0.73,1.629,1.629,1.629h10.201c0.897,0,1.628-0.731,1.628-1.629V119.66
			c0-0.898-0.73-1.628-1.628-1.628H194.585z"/>
		<path class="st4" d="M204.786,158.5h-10.201c-1.728,0-3.129-1.401-3.129-3.129V145.17c0-1.728,1.401-3.129,3.129-3.129h10.201
			c1.728,0,3.129,1.401,3.129,3.129v10.201C207.914,157.099,206.514,158.5,204.786,158.5z"/>
		<path class="st3" d="M204.786,160h-10.201c-2.553,0-4.629-2.076-4.629-4.628V145.17c0-2.552,2.076-4.629,4.629-4.629h10.201
			c2.552,0,4.628,2.077,4.628,4.629v10.201C209.414,157.924,207.338,160,204.786,160z M194.585,143.542
			c-0.899,0-1.629,0.731-1.629,1.629v10.201c0,0.898,0.73,1.628,1.629,1.628h10.201c0.897,0,1.628-0.73,1.628-1.628V145.17
			c0-0.898-0.73-1.629-1.628-1.629H194.585z"/>
	</g>
</g>
</svg>
