<svg xmlns="http://www.w3.org/2000/svg" version="1.1" xmlns:xlink="http://www.w3.org/1999/xlink" xmlns:svgjs="http://svgjs.dev/svgjs" width="1440" height="560" preserveAspectRatio="none" viewBox="0 0 1440 560"><g mask="url(&quot;#SvgjsMask1179&quot;)" fill="none"><rect width="1440" height="560" x="0" y="0" fill="url(&quot;#SvgjsLinearGradient1180&quot;)"></rect><g transform="translate(0, 0)" stroke-linecap="round" stroke="url(&quot;#SvgjsLinearGradient1181&quot;)"><path d="M270.5 214.455 L270.5 345.545" stroke-width="21.75"></path><path d="M299.5 262.305 L299.5 297.695" stroke-width="21.75"></path><path d="M328.5 185.015 L328.5 250.265" stroke-width="21.75"></path><path d="M328.5 282.89 L328.5 304.64" stroke-width="21.75"></path><path d="M328.5 337.265 L328.5 374.985" stroke-width="21.75"></path><path d="M357.5 218.075 L357.5 261.575" stroke-width="21.75"></path><path d="M357.5 294.2 L357.5 341.925" stroke-width="21.75"></path><path d="M386.5 211.075 L386.5 232.825" stroke-width="21.75"></path><path d="M386.5 265.45 L386.5 348.925" stroke-width="21.75"></path><path d="M415.5 157.405 L415.5 222.655" stroke-width="21.75"></path><path d="M415.5 255.28 L415.5 298.78" stroke-width="21.75"></path><path d="M415.5 331.405 L415.5 402.595" stroke-width="21.75"></path><path d="M444.5 125.795 L444.5 212.79500000000002" stroke-width="21.75"></path><path d="M444.5 245.42000000000002 L444.5 434.205" stroke-width="21.75"></path><path d="M473.5 221.965 L473.5 265.46500000000003" stroke-width="21.75"></path><path d="M473.5 298.09000000000003 L473.5 338.035" stroke-width="21.75"></path><path d="M502.5 107.255 L502.5 194.255" stroke-width="21.75"></path><path d="M502.5 226.88 L502.5 452.755" stroke-width="21.75"></path><path d="M531.5 141.415 L531.5 293.66499999999996" stroke-width="21.75"></path><path d="M531.5 326.28999999999996 L531.5 418.585" stroke-width="21.75"></path><path d="M560.5 151.745 L560.5 238.745" stroke-width="21.75"></path><path d="M560.5 271.37 L560.5 408.255" stroke-width="21.75"></path><path d="M589.5 152.295 L589.5 261.04499999999996" stroke-width="21.75"></path><path d="M589.5 293.66999999999996 L589.5 337.16999999999996" stroke-width="21.75"></path><path d="M589.5 369.79499999999996 L589.5 407.705" stroke-width="21.75"></path><path d="M618.5 149.585 L618.5 236.585" stroke-width="21.75"></path><path d="M618.5 269.21000000000004 L618.5 410.415" stroke-width="21.75"></path><path d="M647.5 264.21500000000003 L647.5 295.775" stroke-width="21.75"></path><path d="M676.5 172.305 L676.5 194.055" stroke-width="21.75"></path><path d="M676.5 226.68 L676.5 291.93" stroke-width="21.75"></path><path d="M676.5 324.555 L676.5 387.695" stroke-width="21.75"></path><path d="M705.5 148.965 L705.5 214.215" stroke-width="21.75"></path><path d="M705.5 246.84 L705.5 312.09000000000003" stroke-width="21.75"></path><path d="M705.5 344.71500000000003 L705.5 411.025" stroke-width="21.75"></path><path d="M734.5 246.525 L734.5 313.475" stroke-width="21.75"></path><path d="M763.5 144.925 L763.5 166.675" stroke-width="21.75"></path><path d="M763.5 199.3 L763.5 308.05" stroke-width="21.75"></path><path d="M763.5 340.675 L763.5 415.075" stroke-width="21.75"></path><path d="M792.5 122.885 L792.5 296.885" stroke-width="21.75"></path><path d="M792.5 329.51 L792.5 373.01" stroke-width="21.75"></path><path d="M792.5 405.635 L792.5 437.115" stroke-width="21.75"></path><path d="M821.5 154.405 L821.5 405.605" stroke-width="21.75"></path><path d="M850.5 159.505 L850.5 268.255" stroke-width="21.75"></path><path d="M850.5 300.88 L850.5 400.505" stroke-width="21.75"></path><path d="M879.5 167.965 L879.5 276.71500000000003" stroke-width="21.75"></path><path d="M879.5 309.34000000000003 L879.5 392.035" stroke-width="21.75"></path><path d="M908.5 177.445 L908.5 382.555" stroke-width="21.75"></path><path d="M937.5 195.005 L937.5 282.005" stroke-width="21.75"></path><path d="M937.5 314.63 L937.5 365.005" stroke-width="21.75"></path><path d="M966.5 233.185 L966.5 254.935" stroke-width="21.75"></path><path d="M966.5 287.56 L966.5 326.815" stroke-width="21.75"></path><path d="M995.5 179.745 L995.5 380.255" stroke-width="21.75"></path><path d="M1024.5 136.185 L1024.5 353.685" stroke-width="21.75"></path><path d="M1024.5 386.31 L1024.5 423.815" stroke-width="21.75"></path><path d="M1053.5 148.165 L1053.5 191.665" stroke-width="21.75"></path><path d="M1053.5 224.29 L1053.5 289.53999999999996" stroke-width="21.75"></path><path d="M1053.5 322.16499999999996 L1053.5 411.835" stroke-width="21.75"></path><path d="M1082.5 210.805 L1082.5 232.555" stroke-width="21.75"></path><path d="M1082.5 265.18 L1082.5 286.93" stroke-width="21.75"></path><path d="M1082.5 319.555 L1082.5 349.195" stroke-width="21.75"></path><path d="M1111.5 204.555 L1111.5 355.445" stroke-width="21.75"></path><path d="M1140.5 142.035 L1140.5 207.285" stroke-width="21.75"></path><path d="M1140.5 239.91 L1140.5 348.65999999999997" stroke-width="21.75"></path><path d="M1140.5 381.28499999999997 L1140.5 417.975" stroke-width="21.75"></path><path d="M1169.5 134.875 L1169.5 156.625" stroke-width="21.75"></path><path d="M1169.5 189.25 L1169.5 254.5" stroke-width="21.75"></path><path d="M1169.5 287.125 L1169.5 425.125" stroke-width="21.75"></path></g></g><defs><mask id="SvgjsMask1179"><rect width="1440" height="560" fill="#ffffff"></rect></mask><linearGradient x1="0%" y1="50%" x2="100%" y2="50%" gradientUnits="userSpaceOnUse" id="SvgjsLinearGradient1180"><stop stop-color="#0e2a47" offset="0"></stop><stop stop-color="#00459e" offset="1"></stop></linearGradient><linearGradient x1="390.02112" y1="610.01584" x2="1049.97888" y2="-50.01584" gradientUnits="userSpaceOnUse" id="SvgjsLinearGradient1181"><stop stop-color="#3a7cc3" offset="0"></stop><stop stop-color="#dd1133" offset="1"></stop></linearGradient></defs></svg>